<svg xmlns="http://www.w3.org/2000/svg" width="20" height="20" viewBox="0 0 16 14" fill="none">
<g opacity="0.5">
<path fill-rule="evenodd" clip-rule="evenodd" d="M10.8362 0.000117643C11.3011 0.000117643 11.7653 0.0656907 12.2066 0.213783C14.926 1.09791 15.906 4.08186 15.0874 6.69004C14.6232 8.02287 13.8643 9.23929 12.8704 10.2332C11.4477 11.611 9.88649 12.834 8.20591 13.8876L8.02171 13.9989L7.83015 13.8802C6.14367 12.834 4.5736 11.611 3.13762 10.2258C2.15034 9.23192 1.39073 8.02287 0.919191 6.69004C0.0866338 4.08186 1.06655 1.09791 3.81546 0.19831C4.02912 0.124633 4.24942 0.0730585 4.47045 0.0443242H4.55886C4.7659 0.0141164 4.97146 0.000117643 5.17776 0.000117643H5.2588C5.72297 0.0141164 6.1724 0.0951617 6.60784 0.243254H6.65131C6.68078 0.257252 6.70288 0.272725 6.71762 0.286724C6.88045 0.339035 7.03443 0.397977 7.18179 0.479022L7.46176 0.604274C7.52941 0.640355 7.60535 0.695487 7.67098 0.743134C7.71256 0.773323 7.75 0.800508 7.77858 0.817939C7.7906 0.825032 7.80282 0.832165 7.81514 0.839356C7.87831 0.876234 7.94412 0.914648 7.99961 0.95719C8.81817 0.331667 9.81208 -0.00725012 10.8362 0.000117643ZM12.796 5.30482C13.0981 5.29671 13.3559 5.05432 13.378 4.74413V4.65646C13.4001 3.62423 12.7746 2.68926 11.8234 2.32824C11.5214 2.22436 11.1898 2.38719 11.0793 2.69663C10.9761 3.00608 11.1382 3.34499 11.4477 3.45477C11.9199 3.6316 12.236 4.09651 12.236 4.61151V4.63435C12.222 4.80307 12.2729 4.9659 12.376 5.09115C12.4792 5.21641 12.6339 5.28935 12.796 5.30482Z" />
</g>
</svg>