<svg xmlns="http://www.w3.org/2000/svg" width="14" height="13" viewBox="0 0 14 13" fill="none">
<path fill-rule="evenodd" clip-rule="evenodd" d="M4.85345 3.1001C4.85345 4.38344 3.79547 5.42361 2.48922 5.42361C1.18374 5.42361 0.125 4.38344 0.125 3.1001C0.125 1.81752 1.18374 0.777344 2.48922 0.777344C3.79547 0.777344 4.85345 1.81752 4.85345 3.1001ZM12.8392 2.08252C13.4106 2.08252 13.8751 2.53882 13.8751 3.10018C13.8751 3.6623 13.4106 4.11859 12.8392 4.11859H8.31857C7.74642 4.11859 7.28198 3.6623 7.28198 3.10018C7.28198 2.53882 7.74642 2.08252 8.31857 2.08252H12.8392ZM1.16159 9.68597H5.68226C6.25441 9.68597 6.71885 10.1423 6.71885 10.7044C6.71885 11.2657 6.25441 11.7228 5.68226 11.7228H1.16159C0.589442 11.7228 0.125 11.2657 0.125 10.7044C0.125 10.1423 0.589442 9.68597 1.16159 9.68597ZM11.5108 12.9995C12.8171 12.9995 13.875 11.9594 13.875 10.6768C13.875 9.39345 12.8171 8.35327 11.5108 8.35327C10.2053 8.35327 9.14659 9.39345 9.14659 10.6768C9.14659 11.9594 10.2053 12.9995 11.5108 12.9995Z" fill="white"/>
</svg>